<?xml version="1.0" encoding="utf-8"?>
<!-- Generator: Adobe Illustrator 18.0.0, SVG Export Plug-In . SVG Version: 6.00 Build 0)  -->
<!DOCTYPE svg PUBLIC "-//W3C//DTD SVG 1.1//EN" "http://www.w3.org/Graphics/SVG/1.1/DTD/svg11.dtd">
<svg version="1.1" id="Layer_1" xmlns="http://www.w3.org/2000/svg" xmlns:xlink="http://www.w3.org/1999/xlink" x="0px" y="0px"
	 viewBox="0 0 200 200" enable-background="new 0 0 200 200" xml:space="preserve">
<g>
	<path d="M60.1,133.2c0-1.5,0-2.7,0-3.9c0-14.4,0-28.8,0-43.1c0-1.3,0.1-2.9,0.8-3.7c4.9-5.3,10.3-9.9,17.7-11.3
		c9.7-1.8,17,2.5,18.5,10.9c0.3,1.9,0.3,3.9,0.3,5.8c0.1,16.9,0.2,33.8,0.2,50.7c0,3.3-0.1,6.5-0.6,9.7c-0.8,5-2.9,6.8-8,7.3
		c-1.7,0.2-3.5,0.2-5.2,0.3c0,2.5,0,4.7,0,7.1c2.2,0,4.3,0,6.3,0c7-0.2,11.1-3.1,12.9-9.9c0.9-3.5,1.3-7.1,1.4-10.7
		c0.2-18.5,0.2-37,0.2-55.4c0-1.2-0.1-2.5,0.4-3.5c3-6.5,14.5-13.2,21.9-12.8c6.9,0.3,10.4,3.2,11.7,10.1c0.5,2.8,0.7,5.7,0.7,8.6
		c0.1,13.4,0,26.8,0,40.2c0,1.2,0,2.3,0,3.5c2.6,0,4.8,0,7.2,0c0-14.9,0-29.7,0-44.4c0-1.6,0.2-3.2-0.1-4.7c-0.6-3.4-1-7-2.3-10.2
		c-2.7-7.1-8.4-10.5-15.7-10.8c-9-0.3-16.4,3.4-22.3,10.1c-0.8,0.8-1.5,1.7-2.5,2.9C99.4,67,92.4,63.3,83,63.6
		c-9.1,0.2-16.3,4.4-22.9,11.4c0-13.2,0-25.6,0-37.9c-2.6,0-4.8,0-6.8,0c0,32.2,0,64.1,0,96.1C55.6,133.2,57.6,133.2,60.1,133.2z
		 M104.4,48.7c0-3.8,0-7.5,0-11c-2.4,0-4.7,0-6.9,0c0,3.8,0,7.3,0,11C99.8,48.7,101.9,48.7,104.4,48.7z"/>
</g>
</svg>
