<?xml version="1.0" encoding="utf-8"?>
<!-- Generator: Adobe Illustrator 18.0.0, SVG Export Plug-In . SVG Version: 6.00 Build 0)  -->
<!DOCTYPE svg PUBLIC "-//W3C//DTD SVG 1.1//EN" "http://www.w3.org/Graphics/SVG/1.1/DTD/svg11.dtd">
<svg version="1.1" id="Layer_1" xmlns="http://www.w3.org/2000/svg" xmlns:xlink="http://www.w3.org/1999/xlink" x="0px" y="0px"
	 viewBox="0 0 200 200" enable-background="new 0 0 200 200" xml:space="preserve">
<g>
	<path fill="#FFFFFF" d="M78.3,118c0-0.8,0-1.5,0-2.1c0-7.8,0-15.7,0-23.5c0-0.7,0.1-1.6,0.4-2c2.7-2.9,5.6-5.4,9.6-6.1
		c5.3-1,9.3,1.4,10.1,5.9c0.2,1,0.2,2.1,0.2,3.2c0.1,9.2,0.1,18.4,0.1,27.6c0,1.8-0.1,3.5-0.3,5.3c-0.4,2.7-1.6,3.7-4.4,4
		c-0.9,0.1-1.9,0.1-2.8,0.2c0,1.4,0,2.6,0,3.9c1.2,0,2.3,0,3.4,0c3.8-0.1,6-1.7,7-5.4c0.5-1.9,0.7-3.9,0.8-5.8
		c0.1-10.1,0.1-20.1,0.1-30.1c0-0.7-0.1-1.4,0.2-1.9c1.6-3.5,7.9-7.2,11.9-7c3.8,0.2,5.7,1.7,6.4,5.5c0.3,1.5,0.4,3.1,0.4,4.7
		c0.1,7.3,0,14.6,0,21.9c0,0.7,0,1.3,0,1.9c1.4,0,2.6,0,3.9,0c0-8.1,0-16.2,0-24.2c0-0.9,0.1-1.7-0.1-2.6c-0.3-1.9-0.5-3.8-1.3-5.6
		c-1.5-3.9-4.6-5.7-8.5-5.9c-4.9-0.2-8.9,1.9-12.1,5.5c-0.4,0.4-0.8,0.9-1.4,1.6c-2.3-4.9-6.1-6.9-11.2-6.7c-5,0.1-8.9,2.4-12.5,6.2
		c0-7.2,0-13.9,0-20.6c-1.4,0-2.6,0-3.7,0c0,17.5,0,34.9,0,52.3C75.9,118,77,118,78.3,118z M102.4,72.1c0-2.1,0-4.1,0-6
		c-1.3,0-2.6,0-3.8,0c0,2.1,0,4,0,6C99.9,72.1,101.1,72.1,102.4,72.1z"/>
</g>
</svg>
