<?xml version="1.0" encoding="utf-8"?>
<!-- Generator: Adobe Illustrator 18.0.0, SVG Export Plug-In . SVG Version: 6.00 Build 0)  -->
<!DOCTYPE svg PUBLIC "-//W3C//DTD SVG 1.1//EN" "http://www.w3.org/Graphics/SVG/1.1/DTD/svg11.dtd">
<svg version="1.1" id="Layer_1" xmlns="http://www.w3.org/2000/svg" xmlns:xlink="http://www.w3.org/1999/xlink" x="0px" y="0px"
	 viewBox="0 0 393.5 77.6" enable-background="new 0 0 393.5 77.6" xml:space="preserve">
<g>
	<path fill="#FFFFFF" d="M20.4,58.4c-2.6,0-5.2-0.3-7.8-1c-2.6-0.6-4.9-1.5-6.9-2.6l-2.8,2.3H0l3.5-16.9h2.8
		c0.3,1.7,0.7,3.4,1.4,5.1c0.7,1.8,1.6,3.4,2.7,4.7c1.1,1.4,2.5,2.6,4.2,3.6c1.7,0.9,3.6,1.4,5.8,1.4c3.2,0,5.7-0.8,7.6-2.3
		c1.9-1.6,2.9-3.6,2.9-6.1c0-1.6-0.5-3.1-1.6-4.3c-1.1-1.2-2.8-2.3-5.3-3.2c-1.5-0.5-3-1.1-4.5-1.6c-1.4-0.5-2.8-1-4.1-1.6
		c-2.6-1.1-4.5-2.6-5.8-4.6S7.8,27.3,7.8,25c0-2.1,0.5-4.1,1.4-6c0.9-1.9,2.3-3.6,4.1-5.1c1.7-1.5,3.9-2.7,6.4-3.5s5.4-1.3,8.4-1.3
		c2.5,0,5.1,0.4,7.6,1.1c2.5,0.7,4.3,1.5,5.5,2.1l2.5-2h2.9l-3.4,15.9h-2.8c-0.3-1.9-0.7-3.6-1.2-5.3c-0.5-1.7-1.3-3.1-2.2-4.5
		c-0.9-1.3-2.1-2.3-3.4-3.1c-1.4-0.8-3-1.1-5-1.1c-2.7,0-4.9,0.7-6.7,2.2s-2.7,3.4-2.7,5.6c0,1.6,0.5,3,1.6,4.2
		c1.1,1.2,2.8,2.2,5.1,3.1c1.4,0.5,2.8,1,4.3,1.6c1.5,0.5,2.9,1.1,4.3,1.7c2.5,1.1,4.6,2.5,6,4.3s2.2,4,2.2,6.4
		c0,2.4-0.5,4.6-1.6,6.6c-1.1,2.1-2.6,3.8-4.5,5.3c-2,1.6-4.4,2.8-7.1,3.6C26.6,58,23.6,58.4,20.4,58.4z"/>
	<path fill="#FFFFFF" d="M103.8,10.4l-0.6,2.4c-0.7,0.1-1.4,0.2-2.1,0.4c-0.6,0.2-1.4,0.5-2.2,0.9c-1.1,0.5-2,1.2-2.9,1.9
		c-0.8,0.7-1.8,1.7-2.9,2.9c-2.7,2.9-4.7,5.2-6,6.6s-3.7,4.3-7.2,8.4c-1.9,2.2-3.1,3.8-3.5,4.7c-0.4,0.9-0.9,2.5-1.4,4.8l-1.4,6.1
		c-0.1,0.4-0.2,0.7-0.2,1.1c-0.1,0.3-0.1,0.6-0.1,0.7c0,0.5,0.1,1,0.3,1.4c0.2,0.4,0.6,0.7,1.2,1c0.5,0.2,1.3,0.4,2.3,0.6
		c1,0.2,1.8,0.3,2.5,0.4l-0.6,2.4h-26l0.6-2.4c0.6,0,1.5-0.1,2.7-0.3c1.2-0.1,2-0.3,2.5-0.5c0.8-0.3,1.5-0.8,1.9-1.4
		c0.5-0.6,0.8-1.3,1-2.1l1.9-8.4c0.1-0.6,0.3-1.2,0.4-1.6c0.1-0.5,0.2-0.9,0.2-1.2c0-0.5-0.1-1.1-0.4-1.8c-0.2-0.7-0.6-1.6-1-2.8
		c-1.3-3.8-2.3-6.6-3-8.5c-0.7-1.9-1.6-4.4-2.8-7.5c-0.4-1.1-1-2.1-1.5-2.9c-0.6-0.8-1.2-1.4-1.9-1.9c-0.5-0.3-1.2-0.6-2-0.8
		c-0.8-0.2-1.5-0.3-2.2-0.3l0.6-2.4h26.1l-0.6,2.4c-2.3,0.1-3.9,0.2-5.1,0.5c-1.1,0.3-1.7,0.8-1.7,1.4c0,0.3,0.1,0.8,0.3,1.7
		s0.6,2.2,1.2,4.2c0.5,1.5,1.1,3.4,2,5.8c0.8,2.4,1.8,5,2.8,7.8c2.8-3.2,5.3-6.2,7.6-8.9c2.3-2.7,3.9-4.6,4.8-5.7
		c1.6-2,2.6-3.3,2.8-3.7c0.2-0.5,0.4-0.8,0.4-1c0-0.7-0.5-1.2-1.6-1.5s-2.3-0.5-3.8-0.6l0.6-2.4H103.8z"/>
	<path fill="#FFFFFF" d="M168.9,10.4l-0.6,2.4c-0.7,0-1.5,0.2-2.5,0.3c-1,0.2-1.8,0.3-2.3,0.5c-0.9,0.3-1.6,0.7-2,1.4
		c-0.4,0.6-0.7,1.3-0.9,2l-7.4,32.7c-0.1,0.3-0.1,0.7-0.2,1c-0.1,0.3-0.1,0.6-0.1,0.8c0,1,0.4,1.7,1.2,2.2c0.8,0.5,2.4,0.8,4.8,1.1
		l-0.6,2.4h-25.2l0.6-2.4c0.9-0.1,1.8-0.2,2.7-0.4c0.9-0.1,1.6-0.3,2.1-0.5c0.9-0.3,1.6-0.8,2.1-1.3c0.5-0.6,0.8-1.3,1-2.2l7.9-35.1
		h-0.3l-25.4,41.1h-4.2c0-0.9-0.2-2.2-0.5-4.1c-0.3-1.9-0.5-3.7-0.7-5.4l-4.5-32.1h-0.3L107,43.4c-0.3,1.1-0.5,2.2-0.6,3.2
		c-0.2,1-0.2,2-0.2,2.8c0,0.9,0.1,1.6,0.3,2.1s0.4,0.9,0.8,1.2c0.5,0.5,1.3,0.9,2.6,1.3c1.3,0.4,2.2,0.7,2.8,0.7l-0.6,2.4H91.9
		l0.6-2.4c0.6-0.1,1.5-0.2,2.8-0.4c1.3-0.2,2.4-0.6,3.3-1.2c1-0.6,1.8-1.6,2.5-3c0.6-1.4,1.3-3.5,1.9-6.3l5.3-23.1
		c0.2-0.8,0.3-1.4,0.3-1.8c0.1-0.4,0.1-0.8,0.1-1.2c0-0.7-0.1-1.3-0.3-1.8c-0.2-0.5-0.5-0.9-0.8-1.3c-0.7-0.7-1.5-1.1-2.4-1.3
		c-0.9-0.2-1.8-0.3-2.7-0.4l0.6-2.4h21.4l4.5,30.8l15.3-25c0.7-1.1,1.3-2.3,1.8-3.5c0.5-1.2,0.9-2,0.9-2.3H168.9z"/>
	<path fill="#FFFFFF" d="M188.7,57.1l0.6-2.4c2.3-0.2,4-0.5,5.3-0.8c1.3-0.4,1.9-0.8,1.9-1.3c0-0.4,0-0.7-0.1-1c0-0.3-0.1-0.6-0.2-1
		l-1.6-9.2h-16.1c-0.5,0.8-1.2,1.9-2,3.2c-0.8,1.3-1.5,2.5-2,3.4c-0.8,1.5-1.3,2.5-1.5,3.1c-0.1,0.5-0.2,0.9-0.2,1.1
		c0,0.7,0.5,1.2,1.5,1.6c1,0.4,2.6,0.7,4.7,0.9l-0.6,2.4h-19.6l0.6-2.4c0.6,0,1.4-0.2,2.4-0.3c1-0.2,1.8-0.4,2.4-0.8
		c0.9-0.5,1.8-1.1,2.6-1.9c0.8-0.8,1.6-1.7,2.3-2.8c4.5-6.9,8.6-13.2,12.3-19c3.7-5.8,8.1-12.5,13-20.2h6.5c1.7,9.8,3.1,18,4.2,24.4
		c1.1,6.4,2.1,11.8,2.9,16.1c0.1,0.7,0.3,1.3,0.6,1.8c0.3,0.5,0.8,1,1.5,1.5c0.5,0.4,1.2,0.6,1.9,0.8s1.5,0.3,2.1,0.3l-0.6,2.4
		H188.7z M193.9,38.3l-2.9-17l-10.7,17H193.9z"/>
	<path fill="#FFFFFF" d="M277.8,10.4l-0.6,2.4c-0.6,0.1-1.5,0.2-2.7,0.3c-1.2,0.2-2.3,0.6-3.4,1.3c-0.9,0.6-1.8,1.6-2.4,3.1
		c-0.7,1.4-1.3,3.6-2,6.4l-7.7,33.5h-5.5l-20.2-37.4l-5.3,23.4c-0.3,1.2-0.5,2.4-0.7,3.5c-0.2,1.1-0.2,1.9-0.2,2.6
		c0,0.9,0.1,1.6,0.3,2.1s0.4,0.9,0.8,1.2c0.5,0.5,1.4,0.9,2.7,1.3c1.3,0.4,2.2,0.6,2.8,0.7l-0.6,2.4h-20.1l0.6-2.4
		c0.6-0.1,1.5-0.2,2.8-0.5c1.3-0.2,2.4-0.6,3.3-1.2c1-0.6,1.8-1.6,2.4-3c0.7-1.4,1.3-3.5,1.9-6.4l5.1-22c0.1-0.5,0.2-1,0.3-1.4
		c0.1-0.5,0.1-0.9,0.1-1.2c0-0.7-0.1-1.3-0.2-1.9c-0.2-0.6-0.4-1.2-0.9-1.7c-0.6-0.7-1.4-1.3-2.3-1.7c-0.9-0.4-2-0.7-3.2-0.9
		l0.6-2.4h17.3l17.6,33l4.4-19.2c0.3-1.4,0.5-2.6,0.7-3.4c0.1-0.9,0.2-1.7,0.2-2.5c0-0.9-0.1-1.6-0.3-2.1c-0.2-0.5-0.5-1-0.8-1.3
		c-0.5-0.5-1.3-0.9-2.5-1.3c-1.2-0.4-2.2-0.6-2.8-0.7l0.6-2.4H277.8z"/>
	<path fill="#FFFFFF" d="M324.1,10.4L321,23.7h-2.5c-0.1-0.7-0.3-1.7-0.5-2.8c-0.3-1.1-0.6-2.2-1-3.3c-0.5-1.1-1-2.1-1.5-2.8
		s-1.2-1.2-1.9-1.3c-0.7-0.1-1.5-0.2-2.5-0.2c-1-0.1-1.9-0.1-2.7-0.1h-1.6l-8.4,36.3c-0.1,0.4-0.2,0.7-0.2,1.1
		c-0.1,0.3-0.1,0.6-0.1,0.7c0,0.5,0.1,1,0.3,1.4c0.2,0.4,0.6,0.7,1.2,1c0.5,0.2,1.3,0.4,2.3,0.6c1,0.2,1.8,0.3,2.5,0.4l-0.6,2.4
		h-26.1l0.6-2.4c0.6,0,1.5-0.1,2.7-0.3c1.2-0.1,2-0.3,2.5-0.5c0.9-0.4,1.5-0.8,2-1.4c0.4-0.6,0.7-1.3,0.9-2.1l8.6-37.3h-1.3
		c-0.8,0-1.7,0-2.5,0.1c-0.8,0.1-1.8,0.1-2.9,0.2c-0.8,0.1-1.7,0.6-2.7,1.4c-1,0.8-1.9,1.7-2.8,2.7c-1.1,1.2-2,2.3-2.7,3.3
		c-0.7,1-1.3,1.9-1.8,2.8h-2.5l3.1-13.4H324.1z"/>
	<path fill="#FFFFFF" d="M315.9,57.1l0.6-2.4c0.6,0,1.5-0.1,2.6-0.2c1.1-0.1,1.9-0.3,2.5-0.5c0.9-0.3,1.5-0.7,2-1.3s0.8-1.3,0.9-2
		L332,18c0.1-0.5,0.2-0.8,0.2-1.2c0-0.3,0.1-0.5,0.1-0.7c0-0.9-0.5-1.6-1.5-2.2c-1-0.5-2.6-0.9-4.7-1.2l0.6-2.4h25.9l-0.6,2.4
		c-0.7,0-1.6,0.1-2.7,0.3c-1.1,0.2-1.9,0.3-2.5,0.5c-0.9,0.3-1.6,0.7-2,1.3c-0.4,0.6-0.7,1.3-0.9,2l-7.6,32.7
		c-0.1,0.4-0.2,0.7-0.2,1.1s-0.1,0.6-0.1,0.8c0,1.1,0.5,1.9,1.5,2.3c1,0.4,2.6,0.7,4.7,0.9l-0.6,2.4H315.9z"/>
	<path fill="#FFFFFF" d="M367.2,58.4c-2.6,0-5.2-0.3-7.8-1c-2.6-0.6-4.9-1.5-6.9-2.6l-2.8,2.3h-2.8l3.5-16.9h2.8
		c0.3,1.7,0.7,3.4,1.4,5.1c0.7,1.8,1.6,3.4,2.7,4.7c1.1,1.4,2.5,2.6,4.2,3.6c1.7,0.9,3.6,1.4,5.8,1.4c3.2,0,5.7-0.8,7.6-2.3
		c1.9-1.6,2.9-3.6,2.9-6.1c0-1.6-0.5-3.1-1.6-4.3c-1.1-1.2-2.8-2.3-5.3-3.2c-1.5-0.5-3-1.1-4.5-1.6c-1.4-0.5-2.8-1-4.1-1.6
		c-2.6-1.1-4.5-2.6-5.8-4.6s-1.9-4.1-1.9-6.4c0-2.1,0.5-4.1,1.4-6c0.9-1.9,2.3-3.6,4.1-5.1c1.7-1.5,3.9-2.7,6.4-3.5s5.4-1.3,8.4-1.3
		c2.5,0,5.1,0.4,7.6,1.1c2.5,0.7,4.3,1.5,5.5,2.1l2.5-2h2.9L390,26.3h-2.8c-0.3-1.9-0.7-3.6-1.2-5.3c-0.5-1.7-1.3-3.1-2.2-4.5
		c-0.9-1.3-2.1-2.3-3.4-3.1c-1.4-0.8-3-1.1-5-1.1c-2.7,0-4.9,0.7-6.7,2.2S366,18,366,20.3c0,1.6,0.5,3,1.6,4.2
		c1.1,1.2,2.8,2.2,5.1,3.1c1.4,0.5,2.8,1,4.3,1.6c1.5,0.5,2.9,1.1,4.3,1.7c2.5,1.1,4.6,2.5,6,4.3s2.2,4,2.2,6.4
		c0,2.4-0.5,4.6-1.6,6.6c-1.1,2.1-2.6,3.8-4.5,5.3c-2,1.6-4.4,2.8-7.1,3.6C373.5,58,370.5,58.4,367.2,58.4z"/>
</g>
</svg>
