<?xml version="1.0" encoding="utf-8"?>
<!-- Generator: Adobe Illustrator 18.0.0, SVG Export Plug-In . SVG Version: 6.00 Build 0)  -->
<!DOCTYPE svg PUBLIC "-//W3C//DTD SVG 1.1//EN" "http://www.w3.org/Graphics/SVG/1.1/DTD/svg11.dtd">
<svg version="1.1" id="Layer_1" xmlns="http://www.w3.org/2000/svg" xmlns:xlink="http://www.w3.org/1999/xlink" x="0px" y="0px"
	 viewBox="0 0 6.7 96.4" enable-background="new 0 0 6.7 96.4" xml:space="preserve">
<g>
	<path d="M0.5,87.8l0.3,0.1c0,0.1,0,0.2,0,0.3c0,0.1,0,0.2,0.1,0.3c0,0.1,0.1,0.2,0.2,0.3c0.1,0.1,0.2,0.1,0.3,0.1l4.2,1
		c0,0,0.1,0,0.1,0c0,0,0.1,0,0.1,0c0.1,0,0.2-0.1,0.3-0.2c0.1-0.1,0.1-0.3,0.1-0.6l0.3,0.1v3.2l-0.3-0.1c0-0.1,0-0.2,0-0.3
		c0-0.1,0-0.2-0.1-0.3c0-0.1-0.1-0.2-0.2-0.3c-0.1-0.1-0.2-0.1-0.3-0.1l-2.1-0.5v2.5l2,0.5c0,0,0.1,0,0.1,0c0,0,0.1,0,0.1,0
		c0.1,0,0.2-0.1,0.3-0.2c0.1-0.1,0.1-0.3,0.1-0.6l0.3,0.1v3.2l-0.3-0.1c0-0.1,0-0.2,0-0.3s0-0.2-0.1-0.3c0-0.1-0.1-0.2-0.2-0.3
		c-0.1-0.1-0.2-0.1-0.3-0.1l-4.2-1c-0.1,0-0.1,0-0.1,0s-0.1,0-0.1,0c-0.1,0-0.2,0.1-0.3,0.2c-0.1,0.1-0.1,0.3-0.2,0.6L0.5,95v-3.2
		l0.3,0.1c0,0.1,0,0.2,0,0.3c0,0.1,0,0.2,0.1,0.3c0,0.1,0.1,0.2,0.2,0.3c0.1,0.1,0.2,0.1,0.3,0.1l1.8,0.4v-2.5l-1.7-0.4
		c-0.1,0-0.1,0-0.1,0c0,0-0.1,0-0.1,0c-0.1,0-0.2,0.1-0.3,0.2c-0.1,0.1-0.1,0.3-0.2,0.6L0.5,91V87.8z"/>
	<path d="M6,85.1L6,85.1c0.1,0.1,0.2,0.2,0.2,0.3c0.1,0.1,0.1,0.2,0.2,0.3c0.1,0.1,0.1,0.2,0.2,0.4c0,0.1,0.1,0.3,0.1,0.4
		c0,0.5-0.1,0.9-0.4,1.1C5.9,87.9,5.5,88,5,88c-0.4,0-0.7-0.1-1.1-0.2c-0.3-0.1-0.6-0.3-0.9-0.6c-0.3-0.2-0.5-0.5-0.6-0.8
		c-0.1-0.3-0.2-0.6-0.2-1c0-0.3,0-0.5,0.1-0.7c0.1-0.2,0.1-0.3,0.2-0.5L2.3,83L2.4,83L5,83.6c0.1,0,0.2,0,0.3,0.1c0.1,0,0.2,0,0.3,0
		c0.2,0,0.3,0,0.3-0.1C6,83.5,6,83.4,6,83.2c0-0.1,0-0.2,0-0.3c0-0.1-0.1-0.2-0.1-0.2l0.4,0.1c0.1,0.3,0.2,0.5,0.3,0.7
		c0.1,0.2,0.1,0.4,0.1,0.6c0,0.3-0.1,0.5-0.2,0.7C6.3,84.9,6.2,85,6,85.1z M3.3,84.6c-0.1,0-0.1,0-0.2,0c-0.1,0-0.2,0-0.2,0.1
		c-0.1,0.1-0.1,0.1-0.2,0.2c0,0.1-0.1,0.2-0.1,0.3c0,0.2,0.1,0.4,0.2,0.5C3,85.9,3.2,86,3.4,86.1c0.2,0.1,0.5,0.2,0.8,0.3
		c0.3,0.1,0.6,0.1,0.9,0.1c0.1,0,0.3,0,0.4,0c0.1,0,0.2-0.1,0.3-0.1c0.1-0.1,0.2-0.1,0.2-0.2S6,86,6,85.8c0-0.1,0-0.3-0.1-0.4
		c-0.1-0.1-0.2-0.2-0.3-0.3L3.3,84.6z"/>
	<path d="M5.9,74.1l0.4,0.1c0.1,0.3,0.2,0.5,0.3,0.7c0.1,0.2,0.1,0.4,0.1,0.6c0,0.3-0.1,0.6-0.3,0.8c-0.2,0.2-0.4,0.3-0.6,0.3
		c-0.1,0-0.2,0-0.3,0c-0.1,0-0.2,0-0.4-0.1l-1.1-0.3c-0.1,0-0.2-0.1-0.3-0.1c-0.1,0-0.2,0-0.2,0c-0.1,0-0.2,0-0.3,0.1
		c-0.1,0.1-0.1,0.2-0.1,0.3c0,0.1,0,0.2,0.1,0.4c0.1,0.2,0.2,0.3,0.4,0.5l3,0.7v1.4l-2.6-0.6c-0.1,0-0.3-0.1-0.3-0.1
		c-0.1,0-0.2,0-0.2,0c-0.1,0-0.2,0-0.3,0.1C3,78.9,2.9,79,2.9,79.2c0,0.1,0,0.2,0.1,0.4c0.1,0.2,0.2,0.3,0.4,0.6l3,0.7v1.4l-2.6-0.6
		c-0.1,0-0.2,0-0.3-0.1c-0.1,0-0.2,0-0.3,0c-0.2,0-0.3,0-0.3,0.1c-0.1,0.1-0.1,0.2-0.1,0.4c0,0.1,0,0.2,0,0.3C3,82.3,3,82.4,3,82.5
		l-0.4-0.1c-0.1-0.2-0.2-0.4-0.2-0.7c-0.1-0.2-0.1-0.4-0.1-0.6c0-0.3,0.1-0.6,0.2-0.7c0.1-0.2,0.3-0.3,0.5-0.3v0
		c-0.3-0.3-0.5-0.6-0.6-0.8c-0.1-0.3-0.2-0.6-0.2-0.9c0-0.3,0.1-0.5,0.2-0.7c0.2-0.2,0.3-0.3,0.6-0.3v0c-0.3-0.3-0.5-0.6-0.6-0.8
		c-0.1-0.3-0.2-0.6-0.2-0.9c0-0.3,0.1-0.6,0.3-0.7c0.2-0.2,0.4-0.3,0.6-0.3c0.1,0,0.2,0,0.3,0s0.2,0,0.4,0.1L4.9,75
		C5,75,5.2,75,5.3,75.1c0.1,0,0.2,0,0.3,0c0.2,0,0.3,0,0.3-0.1S6,74.8,6,74.6c0-0.1,0-0.2,0-0.3C5.9,74.2,5.9,74.1,5.9,74.1z"/>
	<path d="M0.8,70.9c0.2,0,0.4,0.1,0.5,0.2c0.1,0.2,0.2,0.4,0.2,0.6c0,0.2-0.1,0.4-0.2,0.6S1,72.5,0.8,72.5s-0.4-0.1-0.5-0.2
		S0,71.9,0,71.7c0-0.2,0.1-0.4,0.2-0.6C0.4,71,0.6,70.9,0.8,70.9z M5.9,71l0.4,0.1c0.1,0.3,0.2,0.5,0.3,0.7c0.1,0.2,0.1,0.4,0.1,0.6
		c0,0.3-0.1,0.6-0.2,0.8c-0.2,0.2-0.4,0.3-0.6,0.3c-0.1,0-0.2,0-0.3,0c-0.1,0-0.2,0-0.3-0.1l-1.2-0.3c-0.1,0-0.2-0.1-0.3-0.1
		c-0.1,0-0.2,0-0.3,0c-0.2,0-0.3,0-0.3,0.1c-0.1,0.1-0.1,0.2-0.1,0.4c0,0.1,0,0.2,0,0.3c0,0.1,0.1,0.2,0.1,0.2l-0.4-0.1
		c-0.1-0.2-0.2-0.4-0.2-0.7c-0.1-0.2-0.1-0.4-0.1-0.6c0-0.3,0.1-0.6,0.2-0.8c0.2-0.2,0.4-0.3,0.6-0.3c0.1,0,0.1,0,0.3,0
		c0.1,0,0.3,0,0.4,0.1L5,71.9c0.1,0,0.2,0.1,0.3,0.1c0.1,0,0.2,0,0.3,0c0.2,0,0.3,0,0.3-0.1C6,71.8,6,71.7,6,71.5c0-0.1,0-0.2,0-0.3
		C6,71.1,5.9,71,5.9,71z"/>
	<path d="M6.6,69c0,0.4,0,0.6-0.1,0.9c-0.1,0.2-0.1,0.4-0.2,0.5c-0.1,0.1-0.2,0.2-0.3,0.3s-0.2,0.1-0.3,0.1c-0.2,0-0.3-0.1-0.4-0.2
		c-0.1-0.1-0.2-0.3-0.2-0.5c0-0.2,0-0.3,0.1-0.4c0.1-0.1,0.2-0.2,0.3-0.3c0.1-0.1,0.3-0.1,0.4-0.2c0.1,0,0.3-0.1,0.3-0.1
		c0-0.3-0.1-0.6-0.2-0.7c-0.1-0.2-0.3-0.2-0.6-0.2c-0.1,0-0.2,0-0.3,0.1c-0.1,0-0.1,0.1-0.2,0.2C5.1,68.5,5,68.6,5,68.7
		c0,0.1-0.1,0.3-0.1,0.4c-0.1,0.3-0.3,0.6-0.5,0.8c-0.2,0.2-0.5,0.3-0.8,0.3c-0.2,0-0.3,0-0.5-0.1c-0.2-0.1-0.3-0.2-0.4-0.4
		c-0.1-0.2-0.2-0.4-0.3-0.7c-0.1-0.3-0.1-0.6-0.1-0.9c0-0.2,0-0.4,0-0.6c0-0.2,0.1-0.4,0.1-0.5c0.1-0.1,0.2-0.3,0.3-0.3
		c0.1-0.1,0.2-0.1,0.4-0.1s0.3,0.1,0.4,0.2c0.1,0.1,0.2,0.3,0.2,0.5c0,0.2,0,0.3-0.1,0.4c-0.1,0.1-0.2,0.2-0.3,0.3
		C3.1,67.9,3,68,2.8,68c-0.1,0-0.2,0.1-0.3,0.1c0,0.2,0.1,0.4,0.2,0.5c0.1,0.2,0.3,0.2,0.5,0.2c0.1,0,0.2,0,0.3-0.1
		c0.1,0,0.1-0.1,0.2-0.2c0.1-0.1,0.1-0.2,0.1-0.3c0-0.1,0.1-0.2,0.1-0.4c0.1-0.4,0.3-0.7,0.5-0.9c0.2-0.2,0.4-0.3,0.7-0.3
		c0.2,0,0.4,0,0.6,0.1s0.3,0.2,0.5,0.4c0.1,0.2,0.2,0.4,0.3,0.7C6.6,68.3,6.6,68.6,6.6,69z"/>
	<path d="M5.9,60.7l0.4,0.1c0.1,0.3,0.2,0.5,0.3,0.7c0.1,0.2,0.1,0.4,0.1,0.6c0,0.3-0.1,0.6-0.3,0.8C6.2,63,6,63.1,5.7,63.1
		c-0.1,0-0.2,0-0.3,0c-0.1,0-0.2,0-0.4-0.1l-1.1-0.3c-0.1,0-0.2-0.1-0.3-0.1s-0.2,0-0.2,0c-0.1,0-0.2,0-0.3,0.1
		C3,62.8,2.9,62.9,2.9,63c0,0.1,0,0.2,0.1,0.4c0.1,0.2,0.2,0.4,0.4,0.6l3,0.7v1.4l-5.4-1.2c0,0-0.1,0-0.1,0c0,0-0.1,0-0.1,0
		c-0.1,0-0.2,0-0.2,0.1c-0.1,0-0.1,0.1-0.1,0.2c0,0.1-0.1,0.1-0.1,0.2s0,0.2,0,0.3l-0.3-0.1L0,63.3l0.1,0L3,63.9v0
		c-0.2-0.3-0.4-0.5-0.5-0.8c-0.1-0.3-0.2-0.6-0.2-0.9c0-0.3,0.1-0.6,0.3-0.7c0.2-0.2,0.4-0.3,0.6-0.3c0.1,0,0.2,0,0.3,0
		c0.1,0,0.2,0,0.4,0.1l1.2,0.3c0.1,0,0.2,0.1,0.3,0.1c0.1,0,0.2,0,0.3,0c0.2,0,0.3,0,0.3-0.1C6,61.5,6,61.4,6,61.2
		c0-0.1,0-0.2,0-0.3C5.9,60.8,5.9,60.7,5.9,60.7z"/>
	<path d="M4.7,54.4c0.3,0.1,0.6,0.2,0.9,0.4c0.2,0.2,0.5,0.4,0.6,0.6c0.2,0.2,0.3,0.5,0.4,0.7c0.1,0.3,0.1,0.5,0.1,0.8
		c0,0.5-0.1,0.9-0.4,1.3c-0.2,0.3-0.6,0.5-1,0.5c-0.3,0-0.5-0.1-0.7-0.2c-0.2-0.2-0.3-0.4-0.3-0.6c0-0.2,0.1-0.4,0.2-0.6
		c0.1-0.1,0.3-0.2,0.5-0.2c0.1,0,0.2,0,0.3,0.1c0.1,0.1,0.2,0.1,0.3,0.3L6,57.6h0.1c0.1,0,0.1-0.1,0.2-0.2c0-0.1,0.1-0.2,0.1-0.3
		c0-0.3-0.1-0.5-0.4-0.7c-0.2-0.2-0.6-0.4-1.1-0.5l-3.3-0.8c-0.1,0-0.1,0-0.1,0c0,0-0.1,0-0.1,0c-0.1,0-0.2,0.1-0.3,0.2
		c-0.1,0.1-0.1,0.3-0.2,0.6l-0.3-0.1v-3.2l0.3,0.1c0,0.1,0,0.2,0,0.3c0,0.1,0,0.2,0.1,0.3c0,0.1,0.1,0.2,0.2,0.3
		c0.1,0.1,0.2,0.1,0.3,0.1L4.7,54.4z"/>
	<path d="M6,50.1L6,50.1c0.1,0.1,0.2,0.2,0.2,0.3c0.1,0.1,0.1,0.2,0.2,0.3c0.1,0.1,0.1,0.2,0.2,0.4s0.1,0.3,0.1,0.4
		c0,0.5-0.1,0.9-0.4,1.1C5.9,52.9,5.5,53,5,53c-0.4,0-0.7-0.1-1.1-0.2c-0.3-0.1-0.6-0.3-0.9-0.6c-0.3-0.2-0.5-0.5-0.6-0.8
		c-0.1-0.3-0.2-0.6-0.2-1c0-0.3,0-0.5,0.1-0.7c0.1-0.2,0.1-0.3,0.2-0.5L2.3,48l0.1-0.1L5,48.6c0.1,0,0.2,0,0.3,0.1
		c0.1,0,0.2,0,0.3,0c0.2,0,0.3,0,0.3-0.1C6,48.5,6,48.4,6,48.2c0-0.1,0-0.2,0-0.3c0-0.1-0.1-0.2-0.1-0.2l0.4,0.1
		c0.1,0.3,0.2,0.5,0.3,0.7c0.1,0.2,0.1,0.4,0.1,0.6c0,0.3-0.1,0.5-0.2,0.7C6.3,49.9,6.2,50,6,50.1z M3.3,49.6c-0.1,0-0.1,0-0.2,0
		c-0.1,0-0.2,0-0.2,0.1c-0.1,0.1-0.1,0.1-0.2,0.2c0,0.1-0.1,0.2-0.1,0.3c0,0.2,0.1,0.4,0.2,0.5C3,50.8,3.2,51,3.4,51.1
		c0.2,0.1,0.5,0.2,0.8,0.3c0.3,0.1,0.6,0.1,0.9,0.1c0.1,0,0.3,0,0.4,0c0.1,0,0.2-0.1,0.3-0.1c0.1-0.1,0.2-0.1,0.2-0.2
		C6,51,6,50.9,6,50.8c0-0.1,0-0.3-0.1-0.4c-0.1-0.1-0.2-0.2-0.3-0.3L3.3,49.6z"/>
	<path d="M6.6,45.2c0,0.6-0.2,1.1-0.5,1.5c-0.3,0.4-0.8,0.5-1.3,0.5c-0.3,0-0.7-0.1-1-0.2S3.3,46.8,3,46.6c-0.2-0.2-0.4-0.5-0.6-0.9
		c-0.1-0.3-0.2-0.7-0.2-1.2c0-0.5,0.1-0.9,0.3-1.1C2.7,43.2,2.9,43,3.3,43c0.1,0,0.2,0,0.3,0c0.1,0,0.2,0.1,0.3,0.1
		C3.9,43.3,4,43.3,4,43.4c0,0.1,0.1,0.2,0.1,0.4c0,0.2-0.1,0.4-0.2,0.5c-0.1,0.1-0.2,0.2-0.3,0.2c-0.1,0-0.3,0-0.4-0.1
		c-0.1-0.1-0.3-0.1-0.4-0.2c0,0-0.1,0.1-0.1,0.2c0,0.1-0.1,0.2-0.1,0.3c0,0.3,0.2,0.6,0.6,0.8c0.4,0.2,0.9,0.3,1.5,0.3
		c0.4,0,0.8-0.1,1-0.2C5.9,45.4,6,45.1,6,44.8c0-0.3-0.1-0.6-0.2-0.8c-0.1-0.2-0.3-0.4-0.6-0.6l0.3-0.3c0.4,0.2,0.6,0.5,0.9,0.9
		S6.6,44.8,6.6,45.2z"/>
	<path d="M2.9,37.5c0.2,0,0.4,0.1,0.5,0.2c0.2,0.1,0.2,0.3,0.2,0.5c0,0.2,0,0.3-0.1,0.5S3.4,39,3.3,39.1c0,0.1,0.1,0.1,0.1,0.2
		c0,0.1,0.1,0.2,0.3,0.3c0.3-0.1,0.7-0.3,1.1-0.4c0.4-0.2,0.7-0.3,0.8-0.3c0.2-0.1,0.3-0.2,0.4-0.3C6,38.5,6,38.4,6,38.2
		c0-0.1,0-0.2,0-0.3c0-0.1-0.1-0.2-0.1-0.3l0.4,0.1c0.1,0.3,0.2,0.5,0.3,0.7c0.1,0.2,0.1,0.4,0.1,0.6c0,0.1,0,0.2,0,0.3
		c0,0.1,0,0.2-0.1,0.3c-0.1,0.1-0.1,0.2-0.2,0.3c-0.1,0.1-0.2,0.2-0.4,0.3c-0.3,0.1-0.5,0.2-0.6,0.3c-0.1,0.1-0.3,0.1-0.6,0.2
		l0.3,0.3l1.6,0.4v1.4l-5.4-1.2c0,0-0.1,0-0.1,0c0,0-0.1,0-0.1,0c-0.1,0-0.2,0-0.2,0.1c-0.1,0-0.1,0.1-0.1,0.2
		c0,0.1-0.1,0.1-0.1,0.2s0,0.2,0,0.3l-0.3-0.1L0,39.9l0.1,0l4.4,1v0c-0.4-0.3-0.7-0.6-0.9-0.8c-0.2-0.2-0.4-0.4-0.6-0.6
		c-0.3-0.3-0.4-0.5-0.5-0.7c-0.1-0.2-0.1-0.3-0.1-0.5c0-0.2,0.1-0.4,0.2-0.5C2.5,37.6,2.7,37.5,2.9,37.5z"/>
	<path d="M6.6,35.6c0,0.4,0,0.6-0.1,0.9c-0.1,0.2-0.1,0.4-0.2,0.5c-0.1,0.1-0.2,0.2-0.3,0.3c-0.1,0.1-0.2,0.1-0.3,0.1
		c-0.2,0-0.3-0.1-0.4-0.2s-0.2-0.3-0.2-0.5c0-0.2,0-0.3,0.1-0.4c0.1-0.1,0.2-0.2,0.3-0.3c0.1-0.1,0.3-0.1,0.4-0.2
		c0.1,0,0.3-0.1,0.3-0.1c0-0.3-0.1-0.6-0.2-0.7c-0.1-0.2-0.3-0.2-0.6-0.2c-0.1,0-0.2,0-0.3,0.1c-0.1,0-0.1,0.1-0.2,0.2
		C5.1,35.1,5,35.2,5,35.4c0,0.1-0.1,0.3-0.1,0.4c-0.1,0.3-0.3,0.6-0.5,0.8c-0.2,0.2-0.5,0.3-0.8,0.3c-0.2,0-0.3,0-0.5-0.1
		c-0.2-0.1-0.3-0.2-0.4-0.4c-0.1-0.2-0.2-0.4-0.3-0.7c-0.1-0.3-0.1-0.6-0.1-0.9c0-0.2,0-0.4,0-0.6s0.1-0.4,0.1-0.5
		c0.1-0.1,0.2-0.3,0.3-0.3c0.1-0.1,0.2-0.1,0.4-0.1s0.3,0.1,0.4,0.2c0.1,0.1,0.2,0.3,0.2,0.5c0,0.2,0,0.3-0.1,0.4
		c-0.1,0.1-0.2,0.2-0.3,0.3c-0.1,0.1-0.2,0.1-0.4,0.2c-0.1,0-0.2,0.1-0.3,0.1c0,0.2,0.1,0.4,0.2,0.5c0.1,0.2,0.3,0.2,0.5,0.2
		c0.1,0,0.2,0,0.3-0.1c0.1,0,0.1-0.1,0.2-0.2c0.1-0.1,0.1-0.2,0.1-0.3c0-0.1,0.1-0.2,0.1-0.4c0.1-0.4,0.3-0.7,0.5-0.9
		c0.2-0.2,0.4-0.3,0.7-0.3c0.2,0,0.4,0,0.6,0.1C6,33.7,6.1,33.8,6.2,34c0.1,0.2,0.2,0.4,0.3,0.7C6.6,34.9,6.6,35.2,6.6,35.6z"/>
	<path d="M4,27.8c0.4,0,0.7,0.1,1,0.2c0.3,0.1,0.6,0.3,0.8,0.6c0.3,0.3,0.5,0.6,0.6,0.9c0.1,0.4,0.2,0.8,0.2,1.2
		c0,0.6-0.2,1.1-0.5,1.4c-0.3,0.4-0.8,0.6-1.3,0.6c-0.4,0-0.7-0.1-1-0.2c-0.3-0.1-0.6-0.3-0.8-0.6c-0.2-0.2-0.4-0.5-0.6-0.9
		c-0.1-0.4-0.2-0.7-0.2-1.2c0-0.6,0.2-1.1,0.5-1.5C3,28,3.4,27.8,4,27.8z M3.5,29.3c-0.3,0-0.6,0.1-0.7,0.2
		c-0.2,0.1-0.2,0.3-0.2,0.5c0,0.2,0.1,0.4,0.3,0.6c0.2,0.2,0.4,0.3,0.8,0.4c0.3,0.1,0.6,0.2,0.9,0.2c0.3,0,0.6,0.1,0.9,0.1
		c0.3,0,0.6-0.1,0.7-0.2s0.2-0.3,0.2-0.5c0-0.2-0.1-0.4-0.3-0.6c-0.2-0.2-0.4-0.3-0.7-0.4c-0.3-0.1-0.6-0.2-0.9-0.2
		C4.1,29.3,3.8,29.3,3.5,29.3z"/>
	<path d="M5.9,21.7l0.4,0.1c0.1,0.3,0.2,0.5,0.3,0.7c0.1,0.2,0.1,0.4,0.1,0.6c0,0.3-0.1,0.6-0.3,0.8C6.2,24,6,24.1,5.7,24.1
		c-0.1,0-0.2,0-0.3,0c-0.1,0-0.2,0-0.4-0.1l-1.1-0.3c-0.1,0-0.2-0.1-0.3-0.1c-0.1,0-0.2,0-0.2,0c-0.1,0-0.2,0-0.3,0.1
		C3,23.8,2.9,23.9,2.9,24c0,0.1,0,0.2,0.1,0.4c0.1,0.2,0.2,0.4,0.4,0.6l3,0.7v1.4l-2.6-0.6c-0.1,0-0.2,0-0.3-0.1c-0.1,0-0.2,0-0.3,0
		c-0.2,0-0.3,0-0.3,0.1c-0.1,0.1-0.1,0.2-0.1,0.4c0,0.1,0,0.2,0,0.3C3,27.2,3,27.3,3,27.4l-0.4-0.1c-0.1-0.2-0.2-0.4-0.2-0.7
		c-0.1-0.2-0.1-0.4-0.1-0.6c0-0.3,0.1-0.6,0.2-0.7C2.6,25.1,2.8,25,3,25v0c-0.2-0.3-0.4-0.6-0.6-0.9c-0.1-0.3-0.2-0.6-0.2-0.9
		c0-0.3,0.1-0.6,0.3-0.7c0.2-0.2,0.4-0.3,0.6-0.3c0.1,0,0.2,0,0.3,0c0.1,0,0.2,0,0.4,0.1l1.2,0.3c0.1,0,0.2,0.1,0.3,0.1
		c0.1,0,0.2,0,0.3,0c0.2,0,0.3,0,0.3-0.1S6,22.4,6,22.2c0-0.1,0-0.2,0-0.3C5.9,21.8,5.9,21.7,5.9,21.7z"/>
	<path d="M4.7,18.7v2.5l-0.9-0.2v-2.5L4.7,18.7z"/>
	<path d="M0.5,8.9l0.3,0.1c0,0.1,0,0.2,0,0.3c0,0.1,0,0.2,0.1,0.3C1,9.7,1,9.7,1.1,9.8c0.1,0.1,0.2,0.1,0.3,0.1l4.2,0.9
		c0,0,0.1,0,0.1,0c0,0,0.1,0,0.1,0c0.1,0,0.2-0.1,0.3-0.2s0.1-0.3,0.1-0.6l0.3,0.1v3.2l-0.3-0.1c0-0.1,0-0.2,0-0.3
		c0-0.1,0-0.2-0.1-0.3c0-0.1-0.1-0.2-0.2-0.3c-0.1-0.1-0.2-0.1-0.3-0.1l-4.5-1v0l5.2,3.2v0.5c-0.1,0-0.3,0-0.5,0.1
		c-0.2,0-0.5,0.1-0.7,0.1l-4.1,0.6v0l3.7,0.8c0.1,0,0.3,0.1,0.4,0.1c0.1,0,0.3,0,0.4,0c0.1,0,0.2,0,0.3,0c0.1,0,0.1-0.1,0.2-0.1
		c0.1-0.1,0.1-0.2,0.2-0.3c0.1-0.2,0.1-0.3,0.1-0.4l0.3,0.1v2.6l-0.3-0.1c0-0.1,0-0.2-0.1-0.4c0-0.2-0.1-0.3-0.2-0.4
		c-0.1-0.1-0.2-0.2-0.4-0.3s-0.4-0.2-0.8-0.2l-2.9-0.7c-0.1,0-0.2,0-0.2,0c-0.1,0-0.1,0-0.2,0c-0.1,0-0.2,0-0.2,0
		c-0.1,0-0.1,0.1-0.2,0.1C1,16.8,0.9,16.9,0.9,17c0,0.1,0,0.2-0.1,0.3l-0.3-0.1v-2.7l3.9-0.6l-3.2-2c-0.1-0.1-0.3-0.2-0.4-0.2
		c-0.2-0.1-0.3-0.1-0.3-0.1V8.9z"/>
	<path d="M6.6,7.1c0,0.3,0,0.6-0.1,0.9C6.4,8.3,6.3,8.5,6.1,8.6C6,8.8,5.8,8.9,5.6,9C5.3,9.1,5.1,9.1,4.8,9.1c-0.3,0-0.7-0.1-1-0.2
		C3.6,8.8,3.3,8.6,3,8.4C2.8,8.1,2.6,7.9,2.5,7.5S2.2,6.8,2.2,6.3c0-0.5,0.1-0.9,0.2-1.1c0.2-0.3,0.4-0.4,0.7-0.4
		c0.3,0,0.6,0.1,0.8,0.3c0.2,0.2,0.4,0.5,0.5,0.9c0.1,0.3,0.2,0.6,0.2,0.8c0,0.2,0.1,0.5,0.1,0.8c0.1,0,0.3,0,0.4-0.1
		c0.2,0,0.3-0.1,0.4-0.1c0.1-0.1,0.2-0.2,0.3-0.3C6,7.1,6,6.9,6,6.7c0-0.3-0.1-0.6-0.2-0.8C5.7,5.6,5.5,5.4,5.2,5.2l0.3-0.3
		c0.4,0.3,0.6,0.6,0.9,1C6.5,6.3,6.6,6.7,6.6,7.1z M3.3,6.2c-0.2,0-0.4,0-0.5,0.1C2.6,6.4,2.6,6.5,2.6,6.7c0,0.2,0.2,0.4,0.5,0.6
		c0.4,0.2,0.8,0.3,1.3,0.4c0-0.2,0-0.3-0.1-0.5c0-0.2-0.1-0.3-0.1-0.4C4.2,6.5,4,6.4,3.9,6.3C3.8,6.2,3.6,6.2,3.3,6.2z"/>
	<path d="M6.6,2.3c0,0.3,0,0.6-0.1,0.9C6.4,3.5,6.3,3.7,6.1,3.8C6,4,5.8,4.1,5.6,4.2C5.3,4.3,5.1,4.3,4.8,4.3c-0.3,0-0.7-0.1-1-0.2
		C3.6,4,3.3,3.8,3,3.6C2.8,3.4,2.6,3.1,2.5,2.7S2.2,2,2.2,1.5c0-0.5,0.1-0.9,0.2-1.1C2.6,0.1,2.9,0,3.2,0C3.5,0,3.8,0.1,4,0.3
		c0.2,0.2,0.4,0.5,0.5,0.9c0.1,0.3,0.2,0.6,0.2,0.8c0,0.2,0.1,0.5,0.1,0.8c0.1,0,0.3,0,0.4-0.1c0.2,0,0.3-0.1,0.4-0.1
		c0.1-0.1,0.2-0.2,0.3-0.3C6,2.3,6,2.1,6,1.9c0-0.3-0.1-0.6-0.2-0.8C5.7,0.8,5.5,0.6,5.2,0.4l0.3-0.3c0.4,0.3,0.6,0.6,0.9,1
		C6.5,1.5,6.6,1.9,6.6,2.3z M3.3,1.4c-0.2,0-0.4,0-0.5,0.1C2.6,1.6,2.6,1.7,2.6,1.9c0,0.2,0.2,0.4,0.5,0.6c0.4,0.2,0.8,0.3,1.3,0.4
		c0-0.2,0-0.3-0.1-0.5c0-0.2-0.1-0.3-0.1-0.4C4.2,1.7,4,1.6,3.9,1.5C3.8,1.4,3.6,1.4,3.3,1.4z"/>
</g>
</svg>
